<svg width="28" height="28" viewBox="0 0 28 28" fill="none" xmlns="http://www.w3.org/2000/svg">
<path d="M19.5994 11.2C19.5994 12.6852 19.0094 14.1096 17.9592 15.1598C16.909 16.21 15.4846 16.8 13.9994 16.8C12.5142 16.8 11.0898 16.21 10.0396 15.1598C8.98941 14.1096 8.39941 12.6852 8.39941 11.2C8.39941 9.71476 8.98941 8.29038 10.0396 7.24018C11.0898 6.18997 12.5142 5.59998 13.9994 5.59998C15.4846 5.59998 16.909 6.18997 17.9592 7.24018C19.0094 8.29038 19.5994 9.71476 19.5994 11.2Z" fill="#AAAEAE"/>
<path fill-rule="evenodd" clip-rule="evenodd" d="M13.4288 27.9888C5.9619 27.6892 0 21.5404 0 14C0 6.2678 6.2678 0 14 0C21.7322 0 28 6.2678 28 14C28 21.7322 21.7322 28 14 28H13.8082C13.6813 28 13.5548 27.9963 13.4288 27.9888ZM5.0162 22.834C4.91153 22.5334 4.8759 22.2131 4.91196 21.8968C4.94802 21.5806 5.05484 21.2765 5.2245 21.0072C5.39417 20.7379 5.6223 20.5102 5.89199 20.3411C6.16167 20.1721 6.46597 20.0659 6.7823 20.0305C12.2395 19.4264 15.7941 19.481 21.2247 20.0431C21.5415 20.0761 21.8465 20.1809 22.1166 20.3496C22.3867 20.5183 22.6148 20.7464 22.7834 21.0166C22.9521 21.2868 23.0568 21.5918 23.0897 21.9086C23.1226 22.2254 23.0828 22.5454 22.9733 22.8445C25.3009 20.4897 26.6043 17.311 26.6 14C26.6 7.0413 20.9587 1.4 14 1.4C7.0413 1.4 1.4 7.0413 1.4 14C1.4 17.4412 2.7797 20.5604 5.0162 22.834Z" fill="#AAAEAE"/>
</svg>
