<svg width="30" height="30" viewBox="0 0 30 30" fill="none" xmlns="http://www.w3.org/2000/svg">
<path d="M1 1H11.5V11.5H1V1ZM18.5 1H29V11.5H18.5V1ZM1 18.5H11.5V29H1V18.5ZM18.5 23.75C18.5 25.1424 19.0531 26.4777 20.0377 27.4623C21.0223 28.4469 22.3576 29 23.75 29C25.1424 29 26.4777 28.4469 27.4623 27.4623C28.4469 26.4777 29 25.1424 29 23.75C29 22.3576 28.4469 21.0223 27.4623 20.0377C26.4777 19.0531 25.1424 18.5 23.75 18.5C22.3576 18.5 21.0223 19.0531 20.0377 20.0377C19.0531 21.0223 18.5 22.3576 18.5 23.75Z" stroke="#AAAEAE" stroke-width="2" stroke-linecap="round" stroke-linejoin="round"/>
</svg>
