<svg width="30" height="32" viewBox="0 0 30 32" fill="none" xmlns="http://www.w3.org/2000/svg">
<path d="M1.77759 11.8125V20.272C1.77759 23.3802 1.77759 23.3802 4.70984 25.3595L12.7735 30.0218C13.9904 30.7255 15.9697 30.7255 17.1719 30.0218L25.2356 25.3595C28.1679 23.3802 28.1679 23.3802 28.1679 20.2867V11.8125C28.1679 8.71892 28.1679 8.71892 25.2356 6.73965L17.1719 2.07737C15.9697 1.37363 13.9904 1.37363 12.7735 2.07737L4.70984 6.73965C1.77759 8.71892 1.77759 8.71892 1.77759 11.8125Z" stroke="#AAAEAE" stroke-width="2" stroke-linecap="round" stroke-linejoin="round"/>
<path d="M14.9728 20.448C17.402 20.448 19.3712 18.4788 19.3712 16.0496C19.3712 13.6205 17.402 11.6512 14.9728 11.6512C12.5437 11.6512 10.5745 13.6205 10.5745 16.0496C10.5745 18.4788 12.5437 20.448 14.9728 20.448Z" stroke="#AAAEAE" stroke-width="2" stroke-linecap="round" stroke-linejoin="round"/>
</svg>
