<svg width="28" height="28" viewBox="0 0 28 28" fill="none" xmlns="http://www.w3.org/2000/svg">
<path d="M26.3867 3.00781C26.6237 3.41797 26.8379 3.8099 27.0293 4.18359C27.2207 4.55729 27.3939 4.93555 27.5488 5.31836C27.7038 5.70117 27.8132 6.09766 27.877 6.50781C27.9408 6.91797 27.9818 7.3737 28 7.875C28 8.59505 27.9089 9.28776 27.7266 9.95312C27.5443 10.6185 27.2799 11.2474 26.9336 11.8398C26.5872 12.4323 26.1725 12.9655 25.6895 13.4395C25.2064 13.9134 24.6732 14.3236 24.0898 14.6699C23.5065 15.0163 22.8822 15.2806 22.2168 15.4629C21.5514 15.6452 20.8542 15.7409 20.125 15.75C19.9154 15.75 19.7057 15.7409 19.4961 15.7227C19.2865 15.7044 19.0723 15.6771 18.8535 15.6406L7.83398 26.6602C7.39648 27.0977 6.89974 27.4303 6.34375 27.6582C5.78776 27.8861 5.19987 28 4.58008 28C3.95117 28 3.35872 27.8815 2.80273 27.6445C2.24674 27.4076 1.76367 27.0794 1.35352 26.6602C0.943359 26.2409 0.615234 25.7533 0.369141 25.1973C0.123047 24.6413 0 24.0488 0 23.4199C0 22.8092 0.113932 22.2259 0.341797 21.6699C0.569661 21.1139 0.902344 20.6126 1.33984 20.166L12.3594 9.14648C12.3229 8.93685 12.2956 8.72721 12.2773 8.51758C12.2591 8.30794 12.25 8.09375 12.25 7.875C12.25 7.15495 12.3411 6.46224 12.5234 5.79688C12.7057 5.13151 12.9701 4.5026 13.3164 3.91016C13.6628 3.31771 14.0775 2.78451 14.5605 2.31055C15.0436 1.83659 15.5768 1.42643 16.1602 1.08008C16.7435 0.733724 17.3678 0.469401 18.0332 0.287109C18.6986 0.104818 19.3958 0.00911458 20.125 0C20.6172 0 21.0684 0.0364583 21.4785 0.109375C21.8887 0.182292 22.2897 0.296224 22.6816 0.451172C23.0736 0.60612 23.4518 0.77474 23.8164 0.957031C24.181 1.13932 24.5729 1.35807 24.9922 1.61328L19.6055 7L21 8.39453L26.3867 3.00781ZM20.125 14C20.9727 14 21.7656 13.8405 22.5039 13.5215C23.2422 13.2025 23.8893 12.765 24.4453 12.209C25.0013 11.653 25.4388 11.0059 25.7578 10.2676C26.0768 9.5293 26.2409 8.73177 26.25 7.875C26.25 7.20964 26.1406 6.56706 25.9219 5.94727L21 10.8555L17.1445 7L22.0527 2.07812C21.4329 1.85938 20.7904 1.75 20.125 1.75C19.2773 1.75 18.4844 1.90951 17.7461 2.22852C17.0078 2.54753 16.3607 2.98503 15.8047 3.54102C15.2487 4.09701 14.8112 4.74414 14.4922 5.48242C14.1732 6.2207 14.0091 7.01823 14 7.875C14 8.19401 14.0273 8.50391 14.082 8.80469C14.1367 9.10547 14.2005 9.40625 14.2734 9.70703L2.58398 21.4102C2.31966 21.6745 2.11458 21.9798 1.96875 22.3262C1.82292 22.6725 1.75 23.0371 1.75 23.4199C1.75 23.8027 1.82292 24.1673 1.96875 24.5137C2.11458 24.86 2.31966 25.1608 2.58398 25.416C2.84831 25.6712 3.14909 25.8717 3.48633 26.0176C3.82357 26.1634 4.18815 26.2409 4.58008 26.25C4.96289 26.25 5.32747 26.1771 5.67383 26.0312C6.02018 25.8854 6.32552 25.6803 6.58984 25.416L18.293 13.7266C18.5938 13.7995 18.8945 13.8633 19.1953 13.918C19.4961 13.9727 19.806 14 20.125 14Z" fill="#AAAEAE"/>
</svg>
